g gun_M10_03
v 0.005997005 0.04462026 -0.007844374
v 0.00544481 0.04462026 -0.005276289
v 0.00544481 -0.04462026 -0.005276289
v 0.005997005 -0.04462026 -0.007844374
v -0.006272885 -0.04462026 -0.007844374
v -0.005720665 -0.04462026 -0.005276289
v -0.005720665 0.04462026 -0.005276289
v -0.006272885 0.04462026 -0.007844374
v -0.005720665 0.04462026 -0.005276289
v -0.007359616 0.04462026 -0.007844374
v -0.006272885 0.04462026 -0.007844374
v -0.00668083 0.04484015 -0.004655639
v -0.005720665 0.04462026 -0.005276289
v 0.006473454 0.04485573 -0.004658533
v -0.00668083 0.04484015 -0.004655639
v 0.00544481 0.04462026 -0.005276289
v 0.006473454 0.04485573 -0.004658533
v 0.005997005 0.04462026 -0.007844374
v 0.007157097 0.04462026 -0.007844374
v 0.00544481 0.04462026 -0.005276289
v 0.006473454 0.04485573 -0.004658533
v -0.00668083 -0.04484014 -0.004655639
v -0.00668083 0.04484015 -0.004655639
v 0.006473454 -0.04485571 -0.004658533
v -0.007359616 -0.04462026 -0.007844374
v -0.00668083 0.04484015 -0.004655639
v -0.00668083 -0.04484014 -0.004655639
v -0.007359616 0.04462026 -0.007844374
v 0.007157097 0.04462026 -0.007844374
v 0.006473454 -0.04485571 -0.004658533
v 0.006473454 0.04485573 -0.004658533
v 0.007157097 -0.04462026 -0.007844374
v 0.00544481 -0.04462026 -0.005276289
v 0.007157097 -0.04462026 -0.007844374
v 0.005997005 -0.04462026 -0.007844374
v 0.006473454 -0.04485571 -0.004658533
v 0.00544481 -0.04462026 -0.005276289
v -0.00668083 -0.04484014 -0.004655639
v 0.006473454 -0.04485571 -0.004658533
v -0.005720665 -0.04462026 -0.005276289
v -0.00668083 -0.04484014 -0.004655639
v -0.006272885 -0.04462026 -0.007844374
v -0.007359616 -0.04462026 -0.007844374
v -0.005720665 -0.04462026 -0.005276289
v -0.004574479 -0.03162108 0.004350922
v -0.005548111 -0.03161541 0.007264224
v -0.005544453 -0.03161076 0.0001361714
v -0.0001025495 -0.0316072 0.001861878
v 0.00552568 -0.03158576 0.0001361714
v 0.00441567 -0.03160151 0.004307101
v 0.005437495 -0.03158596 0.007282694
v -0.005548111 -0.03161541 0.007264224
v -0.008287551 -0.02811953 0.007282694
v -0.007502207 -0.02779176 0.007282694
v -0.006079393 -0.03229991 0.007261223
v -0.008306166 -0.02117036 0.007282694
v -0.007519103 -0.02149394 0.007282694
v -0.00616394 -0.01692653 0.007292444
v -0.005570336 -0.01765907 0.007282694
v -0.004574479 -0.03162108 0.004350922
v -0.004564595 -0.03231557 0.004355548
v -0.0001013141 -0.032313 0.001872742
v -0.0001025495 -0.0316072 0.001861878
v 0.004459083 -0.03232056 0.004231939
v 0.00441567 -0.03160151 0.004307101
v 0.006100984 -0.03232056 0.007294116
v 0.005437495 -0.03158596 0.007282694
v 0.007507645 -0.02777226 0.007199306
v 0.008306166 -0.02809969 0.007355765
v 0.007468851 -0.02143479 0.007219568
v 0.008262455 -0.02110455 0.007334508
v 0.00541527 -0.01763427 0.007282694
v 0.006051786 -0.01689759 0.007293413
v 0.003539706 -0.016919 0.004188335
v 0.003552605 -0.01749237 0.004155694
v -0.0001018954 -0.0169611 0.002320958
v -0.0001010597 -0.01758788 0.002349069
v -0.003964196 -0.01764241 0.003467412
v -0.003972165 -0.01694669 0.003468018
v 0.004459083 -0.03232056 0.004231939
v 0.006100984 -0.03232056 0.007294116
v 0.006100402 -0.0323059 -0.0006064432
v -0.0001013141 -0.032313 0.001872742
v -0.006114585 -0.03233349 -0.0006064432
v -0.004564595 -0.03231557 0.004355548
v -0.006079393 -0.03229991 0.007261223
v 0.007411066 -0.0214523 0.0001227154
v 0.007429888 -0.02775216 0.0001159086
v 0.00552568 -0.03158576 0.0001361714
v 0.005481254 -0.01763412 0.0001361714
v -0.005544453 -0.03161076 0.0001361714
v -0.005588879 -0.01765912 0.0001361714
v -0.007502207 -0.02779176 0.0001361714
v -0.007519103 -0.02149394 0.0001361714
v -0.00616394 -0.01692653 0.007292444
v -0.006163601 -0.01693898 -0.0006064432
v -0.003972165 -0.01694669 0.003468018
v -0.0001018954 -0.0169611 0.002320958
v 0.006051386 -0.01691142 -0.0006064432
v 0.003539706 -0.016919 0.004188335
v 0.006051786 -0.01689759 0.007293413
v 0.005481254 -0.01763412 0.0001361714
v 0.007468851 -0.02143479 0.007219568
v 0.007411066 -0.0214523 0.0001227154
v 0.00541527 -0.01763427 0.007282694
v 0.007507645 -0.02777226 0.007199306
v 0.007429888 -0.02775216 0.0001159086
v 0.005437495 -0.03158596 0.007282694
v 0.00552568 -0.03158576 0.0001361714
v -0.006079393 -0.03229991 0.007261223
v -0.008287551 -0.02811953 -0.0006064432
v -0.008287551 -0.02811953 0.007282694
v -0.006114585 -0.03233349 -0.0006064432
v -0.008306166 -0.02117036 -0.0006064432
v -0.008306166 -0.02117036 0.007282694
v -0.006163601 -0.01693898 -0.0006064432
v -0.00616394 -0.01692653 0.007292444
v 0.006051786 -0.01689759 0.007293413
v 0.008196665 -0.02112446 -0.0006212072
v 0.008262455 -0.02110455 0.007334508
v 0.006051386 -0.01691142 -0.0006064432
v 0.008217521 -0.0280758 -0.000629104
v 0.008306166 -0.02809969 0.007355765
v 0.006100402 -0.0323059 -0.0006064432
v 0.006100984 -0.03232056 0.007294116
v -0.003964196 -0.01764241 0.003467412
v -0.005588879 -0.01765912 0.0001361714
v -0.005570336 -0.01765907 0.007282694
v -0.0001010597 -0.01758788 0.002349069
v 0.005481254 -0.01763412 0.0001361714
v 0.003552605 -0.01749237 0.004155694
v 0.005481254 -0.01763412 0.0001361714
v 0.003552605 -0.01749237 0.004155694
v 0.00541527 -0.01763427 0.007282694
v 0.008217521 -0.0280758 -0.000629104
v 0.008196665 -0.02112446 -0.0006212072
v 0.006051386 -0.01691142 -0.0006064432
v -0.006163601 -0.01693898 -0.0006064432
v -0.008306166 -0.02117036 -0.0006064432
v -0.008287551 -0.02811953 -0.0006064432
v -0.006114585 -0.03233349 -0.0006064432
v 0.006100402 -0.0323059 -0.0006064432
v -0.005548111 -0.03161541 0.007264224
v -0.007502207 -0.02779176 0.0001361714
v -0.005544453 -0.03161076 0.0001361714
v -0.007502207 -0.02779176 0.007282694
v -0.007519103 -0.02149394 0.007282694
v -0.007519103 -0.02149394 0.0001361714
v -0.005570336 -0.01765907 0.007282694
v -0.005588879 -0.01765912 0.0001361714
v 0.002776066 -0.02496146 -0.004723548
v 0.002018808 -0.02313328 7.751462E-06
v 0.002018808 -0.02313328 -0.004723548
v 0.002776066 -0.02496146 7.751462E-06
v 0.0001906255 -0.02237603 7.751462E-06
v 0.0001906255 -0.02237603 -0.004723548
v 0.002018808 -0.02678964 -0.004723548
v 0.002018808 -0.02678964 7.751462E-06
v 0.0001906255 -0.02754689 -0.004723548
v 0.0001906255 -0.02754689 7.751462E-06
v -0.001637557 -0.02678964 -0.004723548
v -0.001637557 -0.02678964 7.751462E-06
v -0.002394815 -0.02496146 -0.004723548
v -0.002394815 -0.02496146 7.751462E-06
v -0.001637557 -0.02313328 -0.004723548
v -0.001637557 -0.02313328 7.751462E-06
v 0.0001906255 -0.02237603 -0.004723548
v 0.0001906255 -0.02237603 7.751462E-06
vt 0.5468506 0.235842
vt 0.5468506 0.2417325
vt 0.7365073 0.2417327
vt 0.7365073 0.2358422
vt 0.7364709 0.2417557
vt 0.7364709 0.2358653
vt 0.5468142 0.235865
vt 0.5468142 0.2417555
vt 0.2072214 0.6187783
vt 0.2045473 0.6258224
vt 0.2057125 0.6258224
vt 0.2054523 0.6166815
vt 0.2072214 0.6187783
vt 0.2412341 0.6166815
vt 0.2054523 0.6166815
vt 0.2393172 0.6187783
vt 0.2412341 0.6166815
vt 0.2408262 0.6258224
vt 0.2421811 0.6258224
vt 0.2393172 0.6187783
vt 0.2412341 0.6166815
vt 0.2054523 0.407554
vt 0.2054523 0.6166815
vt 0.2412341 0.407554
vt 0.1951844 0.407554
vt 0.2054523 0.6166815
vt 0.2054523 0.407554
vt 0.1951844 0.6166815
vt 0.250784 0.6166815
vt 0.2412341 0.407554
vt 0.2412341 0.6166815
vt 0.250784 0.407554
vt 0.2393172 0.4055625
vt 0.2421811 0.3982049
vt 0.2408262 0.3982049
vt 0.2412341 0.407554
vt 0.2393172 0.4055625
vt 0.2054523 0.407554
vt 0.2412341 0.407554
vt 0.2072214 0.4055625
vt 0.2054523 0.407554
vt 0.2057125 0.3982049
vt 0.2045473 0.3982049
vt 0.2072214 0.4055625
vt 0.3063833 0.1751556
vt 0.3112612 0.1899263
vt 0.3112645 0.1547404
vt 0.2844242 0.1629018
vt 0.2569018 0.1547404
vt 0.2624652 0.1751556
vt 0.2569018 0.1899263
vt 0.3010296 0.3125741
vt 0.3164964 0.289327
vt 0.3110762 0.2878264
vt 0.3043902 0.3168707
vt 0.3157374 0.2648239
vt 0.3104866 0.2667239
vt 0.3010594 0.23625
vt 0.2984627 0.2404901
vt 0.2850935 0.3125741
vt 0.2850684 0.3168707
vt 0.2598589 0.3168707
vt 0.259884 0.3125741
vt 0.2369127 0.3168707
vt 0.2369378 0.3125741
vt 0.2194541 0.3168707
vt 0.2230294 0.3125741
vt 0.2122607 0.2892739
vt 0.2072433 0.2909664
vt 0.2122607 0.2635117
vt 0.2072433 0.2617973
vt 0.2238201 0.2404901
vt 0.2198968 0.23625
vt 0.2361607 0.23625
vt 0.236571 0.2404901
vt 0.2580296 0.23625
vt 0.2584398 0.2404901
vt 0.283558 0.2404901
vt 0.2831477 0.23625
vt 0.2731008 0.2147376
vt 0.2618543 0.2306969
vt 0.2618543 0.1927723
vt 0.2916658 0.2062189
vt 0.3205717 0.1927723
vt 0.3130762 0.2147376
vt 0.3205717 0.2306969
vt 0.2170513 0.2643419
vt 0.2169811 0.2896212
vt 0.2247907 0.3050638
vt 0.224973 0.2490132
vt 0.2703046 0.3050638
vt 0.2704883 0.2491129
vt 0.2783892 0.2897849
vt 0.2783892 0.2645058
vt 0.3945732 0.2306969
vt 0.3945732 0.1927723
vt 0.4051498 0.2147376
vt 0.423537 0.2071078
vt 0.4532906 0.1927723
vt 0.44228 0.2147376
vt 0.4532906 0.2306969
vt 0.188096 0.1547404
vt 0.2069895 0.1899263
vt 0.2069895 0.1547404
vt 0.188096 0.1899263
vt 0.2380378 0.1899263
vt 0.2380378 0.1547404
vt 0.2569018 0.1899263
vt 0.2569018 0.1547404
vt 0.3205717 0.2306969
vt 0.3408747 0.1927723
vt 0.3408747 0.2306969
vt 0.3205717 0.1927723
vt 0.3742785 0.1927723
vt 0.3742785 0.2306969
vt 0.3945732 0.1927723
vt 0.3945732 0.2306969
vt 0.188096 0.2306969
vt 0.2081541 0.1927723
vt 0.2081541 0.2306969
vt 0.188096 0.1927723
vt 0.2415595 0.1927723
vt 0.2415595 0.2306969
vt 0.2618543 0.1927723
vt 0.2618543 0.2306969
vt 0.3850924 0.1751786
vt 0.3800555 0.1547404
vt 0.3800491 0.1899263
vt 0.4076715 0.1676573
vt 0.4344184 0.1547404
vt 0.429514 0.1744075
vt 0.4344184 0.1547404
vt 0.429514 0.1744075
vt 0.4344184 0.1899263
vt 0.2798163 0.2914369
vt 0.2798419 0.3008023
vt 0.2827994 0.3064817
vt 0.2996605 0.3064443
vt 0.3026179 0.3007415
vt 0.3025924 0.291376
vt 0.2995934 0.2856981
vt 0.2827323 0.2857355
vt 0.3112612 0.1899263
vt 0.3301417 0.1547404
vt 0.3112645 0.1547404
vt 0.3301417 0.1899263
vt 0.3611892 0.1899263
vt 0.3611892 0.1547404
vt 0.3800491 0.1899263
vt 0.3800555 0.1547404
vt 0.2594965 0.3204345
vt 0.2705463 0.3894342
vt 0.2705463 0.3204345
vt 0.2594965 0.3894342
vt 0.2815962 0.3894342
vt 0.2815962 0.3204345
vt 0.2484467 0.3204345
vt 0.2484467 0.3894342
vt 0.2373968 0.3204345
vt 0.2373968 0.3894342
vt 0.2263469 0.3204345
vt 0.2263469 0.3894342
vt 0.2152971 0.3204345
vt 0.2152971 0.3894342
vt 0.2042472 0.3204345
vt 0.2042472 0.3894342
vt 0.1931973 0.3204345
vt 0.1931973 0.3894342
vn -0.9776546 0 -0.2102175
vn -0.9776546 0 -0.2102175
vn -0.9776546 0 -0.2102175
vn -0.9776546 0 -0.2102175
vn 0.9776527 0 -0.2102264
vn 0.9776527 0 -0.2102264
vn 0.9776527 0 -0.2102264
vn 0.9776527 0 -0.2102264
vn 0.08949911 0.9943478 -0.05711831
vn 0.08949911 0.9943478 -0.05711831
vn 0.0894991 0.9943478 -0.0571183
vn 0.08949911 0.9943478 -0.05711831
vn -0.000642103 0.9385764 -0.3450708
vn -0.000642103 0.9385764 -0.3450708
vn -0.000642103 0.9385764 -0.3450709
vn -0.000642103 0.9385764 -0.3450708
vn -0.09000918 0.9941311 -0.06001418
vn -0.09000917 0.9941311 -0.06001418
vn -0.09000917 0.9941311 -0.06001418
vn -0.09000918 0.9941311 -0.06001417
vn 0.0002200575 0 1
vn 0.0002200575 0 1
vn 0.0002200575 0 1
vn 0.0002200575 0 1
vn -0.9780852 0 0.208205
vn -0.9780852 0 0.208205
vn -0.9780852 0 0.208205
vn -0.9780852 0 0.208205
vn 0.9777418 0 0.2098115
vn 0.9777418 0 0.2098115
vn 0.9777418 0 0.2098115
vn 0.9777418 0 0.2098116
vn -0.09000377 -0.9941318 -0.06001057
vn -0.09000377 -0.9941318 -0.06001057
vn -0.09000377 -0.9941318 -0.06001057
vn -0.09000377 -0.9941318 -0.06001058
vn -0.0006421054 -0.9385835 -0.3450517
vn -0.0006421054 -0.9385835 -0.3450517
vn -0.0006421054 -0.9385835 -0.3450517
vn -0.0006421055 -0.9385834 -0.3450518
vn 0.08949336 -0.9943485 -0.05711463
vn 0.08949336 -0.9943485 -0.05711463
vn 0.08949336 -0.9943485 -0.05711463
vn 0.08949336 -0.9943485 -0.05711463
vn 0.007785022 0.9999695 0.0006565435
vn 0.007785021 0.9999695 0.0006565435
vn 0.007785022 0.9999695 0.0006565434
vn -0.00154309 0.9999949 0.00280336
vn -0.00225813 0.9999847 0.005058216
vn -0.002887225 0.9999913 0.003006567
vn -0.01476629 0.9998909 -0.00015519
vn 0.4894306 -0.1873709 0.8516747
vn 0.0006194421 -0.00245651 0.9999968
vn 0.0005076168 -0.002013046 0.9999979
vn 0.5548192 -0.2117613 0.8045699
vn 0.002473481 -0.001927218 0.9999951
vn 0.002020993 -0.001574661 0.9999967
vn 0.4435307 0.3520391 0.8242263
vn 0.4256806 0.2995064 0.8538688
vn 0.7257954 -0.1687157 0.6669003
vn 0.7244489 -0.1675132 0.6686652
vn 0.01025005 -0.02334462 0.999675
vn 0.01071795 -0.02331125 0.9996708
vn -0.6927956 -0.2509969 0.6760436
vn -0.701261 -0.2595267 0.6639871
vn -0.5457233 -0.2248015 0.8072487
vn -0.5282413 -0.2139546 0.8216962
vn -0.1281106 0.02061668 0.9915456
vn -0.1198431 0.02506239 0.9924765
vn -0.1190616 -0.0168325 0.9927442
vn -0.1089325 -0.02009537 0.993846
vn -0.4154426 0.267636 0.8693552
vn -0.3956974 0.2860221 0.8727055
vn -0.6794392 0.01710467 0.7335324
vn -0.6800839 -0.02944532 0.7325428
vn -0.09024465 0.007172129 0.9958938
vn -0.0873187 0.007293586 0.9961537
vn 0.6658602 0.01773809 0.7458656
vn 0.6623925 0.06002498 0.7467484
vn 0.003462977 -0.9999923 -0.001855247
vn 0.003462977 -0.9999923 -0.001855247
vn 0.003462977 -0.9999923 -0.001855247
vn -7.727323E-05 -0.9999954 -0.003056212
vn 0.00225867 -0.9999936 0.002787187
vn 0.002202087 -0.9999933 0.002924426
vn -0.002128375 -0.9999886 0.004277127
vn 0.0008821898 -3.095537E-05 0.9999996
vn 0.0008821898 -3.095537E-05 0.9999996
vn 0.00088219 -3.095537E-05 0.9999996
vn 0.0008821898 -3.095537E-05 0.9999996
vn 0.0008821898 -3.095537E-05 0.9999996
vn 0.0008821899 -3.095537E-05 0.9999996
vn 0.0008821898 -3.095537E-05 0.9999996
vn 0.00088219 -3.095537E-05 0.9999996
vn 0.006444838 0.999978 -0.001576038
vn 0.006444837 0.999978 -0.001576038
vn 0.006444838 0.999978 -0.001576038
vn 0.003695349 0.9999931 -9.720562E-05
vn -0.002256558 0.9999227 0.01222674
vn -0.009751565 0.9999462 -0.00352707
vn -0.006360281 0.9999782 -0.001750539
vn -0.8861827 -0.4633361 5.487307E-05
vn -0.9702215 -0.2421696 0.004917397
vn -0.9706637 -0.2403905 0.004954258
vn -0.8861827 -0.4633361 5.487307E-05
vn -0.9716523 0.2363634 0.004900676
vn -0.9720275 0.2348154 0.004932423
vn -0.8873231 0.4611481 7.585043E-06
vn -0.8873231 0.4611481 7.585043E-06
vn -0.8865145 -0.4626914 0.002965928
vn -0.9708944 -0.2395031 0.001526417
vn -0.9709789 -0.2391604 0.001524207
vn -0.8865145 -0.4626914 0.002965928
vn -0.9730458 0.2306122 -0.0001928175
vn -0.9730096 0.2307644 -0.0001929433
vn -0.8924306 0.4511845 -0.0003750009
vn -0.8924306 0.4511845 -0.0003750009
vn 0.8881806 0.4594707 -0.004685608
vn 0.9711645 0.2382957 -0.007395914
vn 0.9712683 0.2378721 -0.007400569
vn 0.8881806 0.4594707 -0.004685609
vn 0.972778 -0.2315966 -0.008128938
vn 0.9728678 -0.2312189 -0.008131877
vn 0.8903048 -0.4553241 -0.006105442
vn 0.8903049 -0.4553241 -0.006105443
vn 0.01032813 -0.9999467 -1.995973E-05
vn 0.01032813 -0.9999467 -1.995973E-05
vn 0.01032813 -0.9999467 -1.995973E-05
vn 0.002257361 -0.999644 0.02658384
vn 0.002257361 -0.999644 0.02658384
vn 0.007028985 -0.9992296 0.03861219
vn -0.07477518 -0.9972002 -0.0007106957
vn -0.07477518 -0.9972002 -0.0007106957
vn -0.07477518 -0.9972002 -0.0007106957
vn -0.004678683 0.001121959 -0.9999884
vn -0.004678682 0.001121959 -0.9999884
vn -0.004678682 0.001121959 -0.9999884
vn -4.578697E-06 0.002028857 -0.9999979
vn -0.001131897 0.0005731379 -0.9999992
vn -0.001372955 -3.677874E-06 -0.999999
vn -0.0007823475 -0.002688814 -0.9999961
vn -0.0007823475 -0.002688814 -0.9999961
vn 0.8901703 0.4556278 0.0003765444
vn 0.9718397 0.2356429 0.0001936024
vn 0.8901703 0.4556278 0.0003765444
vn 0.971917 0.2353236 0.0001933369
vn 0.9730288 -0.2306828 -0.0005944823
vn 0.9730288 -0.2306828 -0.0005944823
vn 0.8923626 -0.4513176 -0.001156157
vn 0.8923626 -0.4513176 -0.001156157
vn 1 2.258955E-07 0
vn 0.7071048 0.7071087 0
vn 0.7071048 0.7071087 0
vn 1 2.258955E-07 0
vn 0 1 0
vn 0 1 0
vn 0.7071049 -0.7071087 0
vn 0.7071049 -0.7071087 0
vn 0 -1 0
vn 0 -1 0
vn -0.7071049 -0.7071087 0
vn -0.7071049 -0.7071087 0
vn -1 2.258955E-07 0
vn -1 2.258955E-07 0
vn -0.7071048 0.7071087 0
vn -0.7071048 0.7071087 0
vn 0 1 0
vn 0 1 0
g gun_M10_03_0
f 3/3/3 2/2/2 1/1/1
f 4/4/4 3/3/3 1/1/1
f 7/7/7 6/6/6 5/5/5
f 8/8/8 7/7/7 5/5/5
f 11/11/11 10/10/10 9/9/9
f 10/10/10 12/12/12 9/9/9
f 15/15/15 14/14/14 13/13/13
f 14/14/14 16/16/16 13/13/13
f 19/19/19 18/18/18 17/17/17
f 18/18/18 20/20/20 17/17/17
f 23/23/23 22/22/22 21/21/21
f 22/22/22 24/24/24 21/21/21
f 27/27/27 26/26/26 25/25/25
f 26/26/26 28/28/28 25/25/25
f 31/31/31 30/30/30 29/29/29
f 30/30/30 32/32/32 29/29/29
f 35/35/35 34/34/34 33/33/33
f 34/34/34 36/36/36 33/33/33
f 39/39/39 38/38/38 37/37/37
f 38/38/38 40/40/40 37/37/37
f 43/43/43 42/42/42 41/41/41
f 42/42/42 44/44/44 41/41/41
f 47/47/47 46/46/46 45/45/45
f 48/48/48 47/47/47 45/45/45
f 49/49/49 47/47/47 48/48/48
f 50/50/50 49/49/49 48/48/48
f 49/49/49 50/50/50 51/51/51
f 54/54/54 53/53/53 52/52/52
f 53/53/53 55/55/55 52/52/52
f 56/56/56 53/53/53 54/54/54
f 57/57/57 56/56/56 54/54/54
f 58/58/58 56/56/56 57/57/57
f 59/59/59 58/58/58 57/57/57
f 60/60/60 52/52/52 55/55/55
f 61/61/61 60/60/60 55/55/55
f 61/61/61 62/62/62 60/60/60
f 62/62/62 63/63/63 60/60/60
f 62/62/62 64/64/64 63/63/63
f 64/64/64 65/65/65 63/63/63
f 64/64/64 66/66/66 65/65/65
f 66/66/66 67/67/67 65/65/65
f 67/67/67 66/66/66 68/68/68
f 66/66/66 69/69/69 68/68/68
f 68/68/68 69/69/69 70/70/70
f 69/69/69 71/71/71 70/70/70
f 70/70/70 71/71/71 72/72/72
f 71/71/71 73/73/73 72/72/72
f 74/74/74 72/72/72 73/73/73
f 75/75/75 72/72/72 74/74/74
f 75/75/75 74/74/74 76/76/76
f 77/77/77 75/75/75 76/76/76
f 77/77/77 76/76/76 78/78/78
f 76/76/76 79/79/79 78/78/78
f 78/78/78 79/79/79 59/59/59
f 79/79/79 58/58/58 59/59/59
f 82/82/82 81/81/81 80/80/80
f 82/82/82 80/80/80 83/83/83
f 82/82/82 83/83/83 84/84/84
f 84/84/84 83/83/83 85/85/85
f 86/86/86 84/84/84 85/85/85
f 89/89/89 88/88/88 87/87/87
f 87/87/87 90/90/90 89/89/89
f 90/90/90 91/91/91 89/89/89
f 90/90/90 92/92/92 91/91/91
f 92/92/92 93/93/93 91/91/91
f 92/92/92 94/94/94 93/93/93
f 97/97/97 96/96/96 95/95/95
f 98/98/98 96/96/96 97/97/97
f 98/98/98 99/99/99 96/96/96
f 99/99/99 98/98/98 100/100/100
f 99/99/99 100/100/100 101/101/101
f 104/104/104 103/103/103 102/102/102
f 103/103/103 105/105/105 102/102/102
f 106/106/106 103/103/103 104/104/104
f 107/107/107 106/106/106 104/104/104
f 108/108/108 106/106/106 107/107/107
f 109/109/109 108/108/108 107/107/107
f 112/112/112 111/111/111 110/110/110
f 111/111/111 113/113/113 110/110/110
f 114/114/114 111/111/111 112/112/112
f 115/115/115 114/114/114 112/112/112
f 116/116/116 114/114/114 115/115/115
f 117/117/117 116/116/116 115/115/115
f 120/120/120 119/119/119 118/118/118
f 119/119/119 121/121/121 118/118/118
f 122/122/122 119/119/119 120/120/120
f 123/123/123 122/122/122 120/120/120
f 124/124/124 122/122/122 123/123/123
f 125/125/125 124/124/124 123/123/123
f 128/128/128 127/127/127 126/126/126
f 126/126/126 127/127/127 129/129/129
f 129/129/129 127/127/127 130/130/130
f 131/131/131 129/129/129 130/130/130
f 134/134/134 133/133/133 132/132/132
f 137/137/137 136/136/136 135/135/135
f 138/138/138 137/137/137 135/135/135
f 139/139/139 138/138/138 135/135/135
f 140/140/140 139/139/139 135/135/135
f 141/141/141 140/140/140 135/135/135
f 142/142/142 141/141/141 135/135/135
f 145/145/145 144/144/144 143/143/143
f 144/144/144 146/146/146 143/143/143
f 147/147/147 146/146/146 144/144/144
f 148/148/148 147/147/147 144/144/144
f 149/149/149 147/147/147 148/148/148
f 150/150/150 149/149/149 148/148/148
f 153/153/153 152/152/152 151/151/151
f 152/152/152 154/154/154 151/151/151
f 155/155/155 152/152/152 153/153/153
f 156/156/156 155/155/155 153/153/153
f 151/151/151 154/154/154 157/157/157
f 154/154/154 158/158/158 157/157/157
f 157/157/157 158/158/158 159/159/159
f 158/158/158 160/160/160 159/159/159
f 159/159/159 160/160/160 161/161/161
f 160/160/160 162/162/162 161/161/161
f 161/161/161 162/162/162 163/163/163
f 162/162/162 164/164/164 163/163/163
f 163/163/163 164/164/164 165/165/165
f 164/164/164 166/166/166 165/165/165
f 165/165/165 166/166/166 167/167/167
f 166/166/166 168/168/168 167/167/167
