g gun_M10_02
v -0.00645315 0.0180569 0.09260426
v -0.006497751 0.01742495 -0.09266505
v 0.006497751 0.01742495 -0.09266505
v 0.00645315 0.0180569 0.09260426
v -0.00745523 -0.01758163 0.09265178
v -0.00745523 -0.01758161 -0.09021405
v -0.007457261 0.01675141 -0.09021403
v -0.007457261 0.01675152 0.092606
v -0.00645315 0.0180569 0.09260426
v -0.007457261 0.01675141 -0.09215878
v -0.006497751 0.01742495 -0.09266505
v -0.009008135 0.01651941 -0.09215878
v -0.008353908 0.01651941 -0.09021403
v -0.008351646 -0.01734961 -0.09021405
v -0.009005697 -0.01734961 -0.09215878
v 0.009005697 -0.01734961 -0.09215878
v 0.008351646 -0.01734961 -0.09021405
v 0.008353908 0.01651941 -0.09021403
v 0.009008135 0.01651941 -0.09215878
v 0.00745523 -0.01758161 -0.09021405
v 0.008351646 -0.01734961 -0.09021405
v 0.009005697 -0.01734961 -0.09215878
v 0.00745523 -0.01758161 -0.09215878
v 0.007457261 0.01675141 -0.09021403
v 0.008353908 0.01651941 -0.09021403
v 0.008351646 -0.01734961 -0.09021405
v 0.00745523 -0.01758161 -0.09021405
v -0.00745523 -0.01758161 -0.09215878
v -0.009005697 -0.01734961 -0.09215878
v -0.008351646 -0.01734961 -0.09021405
v -0.00745523 -0.01758161 -0.09021405
v -0.00745523 -0.01758161 -0.09021405
v -0.008351646 -0.01734961 -0.09021405
v -0.008353908 0.01651941 -0.09021403
v -0.007457261 0.01675141 -0.09021403
v -0.007457261 0.01675141 -0.09021403
v -0.008353908 0.01651941 -0.09021403
v -0.009008135 0.01651941 -0.09215878
v -0.007457261 0.01675141 -0.09215878
v 0.007457261 0.01675141 -0.09215878
v 0.009008135 0.01651941 -0.09215878
v 0.008353908 0.01651941 -0.09021403
v 0.007457261 0.01675141 -0.09021403
v -0.006352134 -0.01805694 0.0926524
v -0.00745523 -0.01758161 -0.09021405
v -0.00745523 -0.01758163 0.09265178
v -0.006352134 -0.01805694 0.0926524
v -0.00745523 -0.01758161 -0.09215878
v -0.00745523 -0.01758161 -0.09021405
v -0.006352134 -0.0180569 -0.09215878
v 0.006352133 -0.0180569 -0.09215878
v 0.006352133 -0.01805694 0.0926524
v 0.006352133 -0.0180569 -0.09215878
v -0.006352134 -0.0180569 -0.09215878
v -0.006352134 -0.01805694 0.0926524
v 0.006352133 -0.01805694 0.0926524
v 0.00745523 -0.01758163 0.09265178
v 0.00745523 -0.01758161 -0.09021405
v 0.00745523 -0.01758161 -0.09021405
v 0.00745523 -0.01758161 -0.09215878
v 0.006352133 -0.0180569 -0.09215878
v -0.00745523 -0.01758161 -0.09215878
v -0.006352134 -0.0180569 -0.09215878
v 0.006352133 -0.0180569 -0.09215878
v -0.00745523 -0.01758161 -0.09215878
v 0.006352133 -0.0180569 -0.09215878
v 0.00745523 -0.01758161 -0.09215878
v 0.009005697 -0.01734961 -0.09215878
v 0.009008135 0.01651941 -0.09215878
v 0.007457261 0.01675141 -0.09215878
v 0.006497751 0.01742495 -0.09266505
v -0.006497751 0.01742495 -0.09266505
v -0.007457261 0.01675141 -0.09215878
v -0.009008135 0.01651941 -0.09215878
v -0.009005697 -0.01734961 -0.09215878
v -0.00645315 0.0180569 0.09260426
v 0.00645315 0.0180569 0.09260426
v 0.007457261 0.01675152 0.092606
v -0.00645315 0.0180569 0.09260426
v 0.007457261 0.01675152 0.092606
v 0.00745523 -0.01758163 0.09265178
v 0.006352133 -0.01805694 0.0926524
v -0.006352134 -0.01805694 0.0926524
v -0.00745523 -0.01758163 0.09265178
v -0.007457261 0.01675152 0.092606
v 0.00645315 0.0180569 0.09260426
v 0.006497751 0.01742495 -0.09266505
v 0.007457261 0.01675141 -0.09215878
v 0.00645315 0.0180569 0.09260426
v 0.007457261 0.01675141 -0.09215878
v 0.007457261 0.01675141 -0.09021403
v 0.007457261 0.01675152 0.092606
v 0.00745523 -0.01758161 -0.09021405
v 0.00745523 -0.01758163 0.09265178
v 0.007457261 0.01675152 0.092606
v 0.007457261 0.01675141 -0.09021403
vt 0.9708014 0.4901992
vt 0.9706811 0.1203642
vt 0.9984536 0.1203642
vt 0.9985738 0.4901992
vt 0.8923824 0.4935215
vt 0.8923824 0.1238675
vt 0.9589173 0.1238675
vt 0.9589173 0.4935215
vt 0.9611492 0.4935215
vt 0.9589173 0.1199335
vt 0.9611492 0.1199335
vt 0.940139 0.1173939
vt 0.9359696 0.1174172
vt 0.9359326 0.04298601
vt 0.940139 0.04301043
vt 0.9488134 0.04321875
vt 0.9446778 0.04315971
vt 0.9446789 0.1176616
vt 0.9488134 0.1176024
vt 0.9446683 0.04023545
vt 0.9446778 0.04315971
vt 0.9488134 0.04321875
vt 0.9488134 0.04023545
vt 0.9427896 0.118274
vt 0.9446789 0.1176616
vt 0.9446778 0.04315971
vt 0.9427853 0.04254724
vt 0.940139 0.04002699
vt 0.940139 0.04301043
vt 0.9359326 0.04298601
vt 0.9359938 0.04002699
vt 0.9338997 0.0424444
vt 0.9359326 0.04298601
vt 0.9359696 0.1174172
vt 0.9340095 0.11796
vt 0.9359938 0.1203772
vt 0.9359696 0.1174172
vt 0.940139 0.1173939
vt 0.940139 0.1203772
vt 0.9488134 0.1205858
vt 0.9488134 0.1176024
vt 0.9446789 0.1176616
vt 0.9446683 0.1205858
vt 0.8900194 0.4935215
vt 0.8923824 0.1238675
vt 0.8923824 0.4935215
vt 0.8900194 0.4935215
vt 0.8923824 0.1199335
vt 0.8923824 0.1238675
vt 0.8900194 0.1199335
vt 0.8694735 0.1199335
vt 0.8694634 0.4935215
vt 0.8694735 0.1199335
vt 0.8900194 0.1199335
vt 0.8900194 0.4935215
vt 0.8694634 0.4935215
vt 0.8665885 0.4935215
vt 0.8665885 0.1236432
vt 0.8665885 0.1236432
vt 0.8665885 0.1199335
vt 0.8694634 0.1199335
vt 0.9595159 0.0357087
vt 0.9621407 0.03460532
vt 0.9923801 0.03460532
vt 0.9595159 0.0357087
vt 0.9923801 0.03460532
vt 0.9950051 0.0357087
vt 0.9986965 0.03624701
vt 0.9987018 0.1148415
vt 0.9950103 0.1153798
vt 0.9919415 0.1176759
vt 0.9615631 0.1176759
vt 0.9595106 0.1153798
vt 0.9558194 0.1148415
vt 0.9558257 0.03624701
vt 0.9059343 0.0675745
vt 0.9059343 0.1096189
vt 0.901861 0.1128905
vt 0.9059343 0.0675745
vt 0.901861 0.1128905
vt 0.7947599 0.1128838
vt 0.7932762 0.10929
vt 0.7932762 0.06790338
vt 0.7947599 0.06430976
vt 0.901861 0.06430303
vt 0.7954181 0.4934483
vt 0.7954181 0.1196337
vt 0.7982754 0.1196337
vt 0.7954181 0.4934483
vt 0.7982754 0.1196337
vt 0.7982754 0.12357
vt 0.7982754 0.4934483
vt 0.8665885 0.1236432
vt 0.8665885 0.4935215
vt 0.7982754 0.4934483
vt 0.7982754 0.12357
vn 0 0.9999942 -0.00342129
vn 0 0.9999942 -0.00342129
vn 0 0.9999942 -0.00342129
vn 0 0.9999942 -0.00342129
vn -1 -4.768377E-05 0
vn -1 -4.768377E-05 0
vn -0.9246664 0.3807777 -0.0006198874
vn -0.9246664 0.3807777 -0.0006198874
vn -0.7099839 0.704217 -0.001096726
vn -0.7099839 0.704217 -0.001096726
vn -0.7099839 0.704217 -0.001096726
vn -0.9478176 -7.152553E-05 0.3188131
vn -0.9478176 -7.152553E-05 0.3188131
vn -0.9478176 -7.152553E-05 0.3188131
vn -0.9478176 -7.152553E-05 0.3188131
vn 0.9478176 -7.152553E-05 0.3188131
vn 0.9478176 -7.152553E-05 0.3188131
vn 0.9478176 -7.152553E-05 0.3188131
vn 0.9478176 -7.152553E-05 0.3188131
vn 0.1862331 -0.982006 0.03132844
vn 0.1862331 -0.982006 0.03132844
vn 0.1862331 -0.982006 0.03132844
vn 0.1862331 -0.982006 0.03132844
vn 0 0 1
vn 0 0 1
vn 0 0 1
vn 0 0 1
vn -0.1862331 -0.982006 0.03132844
vn -0.1862331 -0.982006 0.03132844
vn -0.1862331 -0.982006 0.03132844
vn -0.1862331 -0.982006 0.03132844
vn 0 0 1
vn 0 0 1
vn 0 0 1
vn 0 0 1
vn -0.1861828 0.9820156 0.03132799
vn -0.1861828 0.9820156 0.03132799
vn -0.1861828 0.9820156 0.03132799
vn -0.1861828 0.9820156 0.03132799
vn 0.1861828 0.9820156 0.03132799
vn 0.1861828 0.9820156 0.03132799
vn 0.1861828 0.9820156 0.03132799
vn 0.1861828 0.9820156 0.03132799
vn 0 -0.2600658 0.9655909
vn 0 -0.4911213 0.8710912
vn 0 -0.4911213 0.8710912
vn -0.2020192 -0.9793816 0
vn -0.3956972 -0.918381 0
vn -0.3956972 -0.918381 0
vn -0.3956972 -0.918381 0
vn 0.2020192 -0.9793816 0
vn -0.2020192 -0.9793816 0
vn -0.2020192 -0.9793816 0
vn -0.2020192 -0.9793816 0
vn -0.3956972 -0.918381 0
vn 0.2020192 -0.9793816 0
vn -0.2020192 -0.9793816 0
vn 0.2020192 -0.9793816 0
vn 0.3956972 -0.918381 0
vn 0.3956972 -0.918381 0
vn 0.3956972 -0.918381 0
vn 0.6050678 -0.3493301 -0.7154449
vn 0.6367251 0.4268656 -0.6421581
vn 0.6050678 -0.3493301 -0.7154449
vn 0 -0.01115811 -0.9999377
vn 0 -0.01115811 -0.9999377
vn 0 -0.01115811 -0.9999377
vn 0 -0.01115811 -0.9999377
vn 0 -0.01115811 -0.9999377
vn 0 -0.01115811 -0.9999377
vn 0 -0.01115811 -0.9999377
vn 0 -0.01115811 -0.9999377
vn 0 -0.01115811 -0.9999377
vn 0 -0.01115811 -0.9999377
vn 0 -0.01115811 -0.9999377
vn -0.918937 -0.01106263 -0.3942491
vn -0.9479521 0.04777907 -0.3148078
vn -0.918937 -0.01106263 -0.3942491
vn 0 0.001335155 0.9999991
vn 0 0.001335155 0.9999991
vn 0 0.001335155 0.9999991
vn 0 0.001335155 0.9999991
vn 0 0.001335155 0.9999991
vn 0 0.001335155 0.9999991
vn 0 0.001335155 0.9999991
vn 0.03452811 0.3240743 0.9454014
vn 0.03452811 0.3240743 0.9454014
vn 0.03361692 0.3896702 0.9203407
vn 0.7099839 0.704217 -0.001100699
vn 0.7099839 0.704217 -0.001100699
vn 0.7099839 0.704217 -0.001100699
vn 0.9246664 0.3807777 -0.0006198874
vn 0.9246664 0.3807777 -0.0006198874
vn 1 -4.768376E-05 0
vn 0.7099839 0.704217 -0.001100699
vn 0.9246664 0.3807777 -0.0006198874
g gun_M10_02_0
f 3/3/3 2/2/2 1/1/1
f 4/4/4 3/3/3 1/1/1
f 7/7/7 6/6/6 5/5/5
f 8/8/8 7/7/7 5/5/5
f 7/7/7 8/8/8 9/9/9
f 10/10/10 7/7/7 9/9/9
f 11/11/11 10/10/10 9/9/9
f 14/14/14 13/13/13 12/12/12
f 15/15/15 14/14/14 12/12/12
f 18/18/18 17/17/17 16/16/16
f 19/19/19 18/18/18 16/16/16
f 22/22/22 21/21/21 20/20/20
f 23/23/23 22/22/22 20/20/20
f 26/26/26 25/25/25 24/24/24
f 27/27/27 26/26/26 24/24/24
f 30/30/30 29/29/29 28/28/28
f 31/31/31 30/30/30 28/28/28
f 34/34/34 33/33/33 32/32/32
f 35/35/35 34/34/34 32/32/32
f 38/38/38 37/37/37 36/36/36
f 39/39/39 38/38/38 36/36/36
f 42/42/42 41/41/41 40/40/40
f 43/43/43 42/42/42 40/40/40
f 46/46/46 45/45/45 44/44/44
f 49/49/49 48/48/48 47/47/47
f 48/48/48 50/50/50 47/47/47
f 52/52/52 47/47/47 51/51/51
f 55/55/55 54/54/54 53/53/53
f 58/58/58 57/57/57 56/56/56
f 60/60/60 59/59/59 56/56/56
f 61/61/61 60/60/60 56/56/56
f 64/64/64 63/63/63 62/62/62
f 67/67/67 66/66/66 65/65/65
f 68/68/68 67/67/67 65/65/65
f 69/69/69 68/68/68 65/65/65
f 70/70/70 69/69/69 65/65/65
f 71/71/71 70/70/70 65/65/65
f 72/72/72 71/71/71 65/65/65
f 73/73/73 72/72/72 65/65/65
f 74/74/74 73/73/73 65/65/65
f 75/75/75 74/74/74 65/65/65
f 78/78/78 77/77/77 76/76/76
f 81/81/81 80/80/80 79/79/79
f 82/82/82 81/81/81 79/79/79
f 83/83/83 82/82/82 79/79/79
f 84/84/84 83/83/83 79/79/79
f 85/85/85 84/84/84 79/79/79
f 88/88/88 87/87/87 86/86/86
f 91/91/91 90/90/90 89/89/89
f 92/92/92 91/91/91 89/89/89
f 94/94/94 93/93/93 92/92/92
f 93/93/93 96/96/96 95/95/95
