g gun_m629_4
v -0.2476155 0.03751791 0.1547166
v -0.2599705 0.03177995 0.1463939
v -0.2476066 0.03128378 0.1543122
v -0.2599794 0.03801407 0.1467984
v -0.2476066 0.03128378 0.1543122
v -0.2527363 0.03700882 0.1624505
v -0.2476155 0.03751791 0.1547166
v -0.2527274 0.0307747 0.162046
v -0.2591504 0.03064602 0.1638883
v -0.2591593 0.03688014 0.1642928
v -0.2599234 0.03045511 0.1668136
v -0.2599323 0.03668923 0.1672181
v -0.2580687 0.02995721 0.1745282
v -0.2580775 0.03619133 0.1749327
v -0.2515264 0.02976828 0.1775835
v -0.2515352 0.0360024 0.177988
v -0.244536 0.03604552 0.1774771
v -0.2432068 0.03290462 0.1773145
v -0.2445271 0.0298114 0.1770726
v -0.244536 0.03604552 0.1774771
v -0.2426453 0.0326606 0.1811891
v -0.2439744 0.03579494 0.1813513
v -0.2432068 0.03290462 0.1773145
v -0.2445271 0.0298114 0.1770726
v -0.2439655 0.02956083 0.1809468
v -0.2520952 0.03578193 0.1813737
v -0.2426453 0.0326606 0.1811891
v -0.2520863 0.02954781 0.1809692
v -0.2439744 0.03579494 0.1813513
v -0.2439655 0.02956083 0.1809468
v -0.2600461 0.02974513 0.1777534
v -0.260055 0.03597925 0.1781579
v -0.2642161 0.03003077 0.1732596
v -0.264225 0.03626489 0.173664
v -0.2698606 0.02993256 0.1746493
v -0.2699436 0.02993112 0.1746698
v -0.2699525 0.03616524 0.1750743
v -0.2742645 0.02944791 0.1820223
v -0.2742734 0.03568203 0.1824268
v -0.2783387 0.02947976 0.181442
v -0.2783476 0.03571388 0.1818465
v -0.2808178 0.03577422 0.1808623
v -0.2808089 0.0295401 0.1804578
v -0.283677 0.02971844 0.1776463
v -0.2836859 0.03595256 0.1780508
v -0.2439744 0.03579494 0.1813513
v -0.2515352 0.0360024 0.177988
v -0.244536 0.03604552 0.1774771
v -0.2520952 0.03578193 0.1813737
v -0.2580775 0.03619133 0.1749327
v -0.260055 0.03597925 0.1781579
v -0.264225 0.03626489 0.173664
v -0.2599323 0.03668923 0.1672181
v -0.2591593 0.03688014 0.1642928
v -0.2699525 0.03616524 0.1750743
v -0.2808178 0.03577422 0.1808623
v -0.2783476 0.03571388 0.1818465
v -0.2836859 0.03595256 0.1780508
v -0.2742734 0.03568203 0.1824268
v -0.2527363 0.03700882 0.1624505
v -0.2476155 0.03751791 0.1547166
v -0.2599794 0.03801407 0.1467984
v -0.2600461 0.02974513 0.1777534
v -0.2515264 0.02976828 0.1775835
v -0.2580687 0.02995721 0.1745282
v -0.2520863 0.02954781 0.1809692
v -0.2599234 0.03045511 0.1668136
v -0.2642161 0.03003077 0.1732596
v -0.2445271 0.0298114 0.1770726
v -0.2439655 0.02956083 0.1809468
v -0.2698606 0.02993256 0.1746493
v -0.2591504 0.03064602 0.1638883
v -0.283677 0.02971844 0.1776463
v -0.2599705 0.03177995 0.1463939
v -0.2476066 0.03128378 0.1543122
v -0.2527274 0.0307747 0.162046
v -0.2699436 0.02993112 0.1746698
v -0.2783387 0.02947976 0.181442
v -0.2742645 0.02944791 0.1820223
v -0.2808089 0.0295401 0.1804578
v -0.283677 0.02971844 0.1776463
v -0.2699436 0.02993112 0.1746698
v -0.2698606 0.02993256 0.1746493
v -0.2527363 0.03700882 0.1624505
v -0.2591593 0.03688014 0.1642928
v -0.2836859 0.03595256 0.1780508
v -0.2783476 0.03571388 0.1818465
v -0.2591593 0.03688014 0.1642928
v -0.2699525 0.03616524 0.1750743
vt 0.246158 0.092426
vt 0.290107 0.030531
vt 0.290107 0.092424
vt 0.246157 0.030531
vt 0.290107 0.092424
vt 0.246169 0.131564
vt 0.246158 0.092426
vt 0.290117 0.131561
vt 0.290125 0.159713
vt 0.246176 0.159724
vt 0.290148 0.172475
vt 0.246201 0.172505
vt 0.290216 0.205974
vt 0.246269 0.205991
vt 0.29021 0.236407
vt 0.246293 0.236407
vt 0.246234 0.265969
vt 0.268412 0.271553
vt 0.290265 0.265969
vt 0.299545 0.169784
vt 0.313749 0.143353
vt 0.317889 0.166291
vt 0.298082 0.143484
vt 0.299155 0.120574
vt 0.31756 0.120574
vt 0.354976 0.1661
vt 0.313749 0.143353
vt 0.354813 0.120574
vt 0.317889 0.166291
vt 0.31756 0.120574
vt 0.392941 0.120574
vt 0.392938 0.165966
vt 0.41999 0.120574
vt 0.419987 0.165977
vt 0.445725 0.120574
vt 0.445992 0.120574
vt 0.445992 0.16598
vt 0.483777 0.120574
vt 0.483777 0.165982
vt 0.501919 0.120574
vt 0.501919 0.165982
vt 0.513644 0.165983
vt 0.513644 0.120574
vt 0.531491 0.120574
vt 0.531491 0.165983
vt 0.443255 0.73266
vt 0.413475 0.721319
vt 0.441084 0.719626
vt 0.415036 0.734374
vt 0.389831 0.71084
vt 0.383086 0.723228
vt 0.367872 0.707483
vt 0.381114 0.682463
vt 0.384385 0.670709
vt 0.348538 0.708953
vt 0.303238 0.737293
vt 0.31281 0.740775
vt 0.291926 0.72685
vt 0.328253 0.741635
vt 0.40853 0.663316
vt 0.427209 0.633038
vt 0.378944 0.604135
vt 0.383086 0.723228
vt 0.413475 0.721319
vt 0.389831 0.71084
vt 0.415036 0.734374
vt 0.381114 0.682463
vt 0.367872 0.707483
vt 0.441084 0.719626
vt 0.443255 0.73266
vt 0.348854 0.708864
vt 0.384385 0.670709
vt 0.291926 0.72685
vt 0.378944 0.604135
vt 0.427209 0.633038
vt 0.40853 0.663316
vt 0.348538 0.708953
vt 0.31281 0.740775
vt 0.328253 0.741635
vt 0.303238 0.737293
vt 0.291926 0.72685
vt 0.348538 0.708953
vt 0.348854 0.708864
vt 0.40853 0.663316
vt 0.384385 0.670709
vt 0.291926 0.72685
vt 0.31281 0.740775
vt 0.384385 0.670709
vt 0.348538 0.708953
vn 0.5400611 0.05525908 -0.8398098
vn 0.5400611 0.05525908 -0.8398098
vn 0.5400614 0.05525838 -0.8398097
vn 0.5400608 0.05525977 -0.83981
vn 0.8343416 -0.034508 0.5501667
vn 0.5919349 -0.05134588 0.8043485
vn 0.8343422 -0.03450622 0.5501658
vn 0.5919345 -0.05134683 0.8043488
vn 0.5723626 -0.05228195 0.8183323
vn 0.8324811 -0.0346929 0.5529662
vn 0.9954993 -0.004723008 0.09465151
vn 0.9973682 0.006108486 -0.07224509
vn 0.8652581 0.03368638 -0.5001937
vn 0.6648515 0.04930655 -0.7453464
vn 0.1354824 0.06692046 -0.9885172
vn 0.1812565 0.06393165 -0.9813556
vn -0.05885955 0.0486442 -0.9970804
vn -0.05889032 0.07080606 -0.9957502
vn -0.07303455 0.1086996 -0.9913881
vn 0.7141692 0.6975107 -0.05866186
vn 0.9896995 0.008398209 -0.1429139
vn 0.3561716 0.934379 0.008803949
vn 0.9896997 0.008003986 -0.1429348
vn 0.5488455 -0.8253178 -0.1327371
vn 0.5489831 -0.8251926 -0.1329467
vn -0.1908961 -0.06019448 0.9797629
vn 0.001264088 -0.06479619 0.9978977
vn -0.1268269 -0.06928905 0.9895019
vn 0.002827683 -0.05047225 0.9987214
vn 0.0028686 -0.07915249 0.9968584
vn -0.5054694 -0.05658581 0.8609871
vn -0.6275766 -0.051302 0.7768627
vn -0.4662131 -0.05794289 0.8827729
vn -0.004079611 -0.06479272 0.9978904
vn 0.2397082 -0.06259096 0.9688253
vn 0.4807884 -0.05614276 0.8750374
vn 0.7039312 -0.04499123 0.7088418
vn 0.6205527 -0.04989521 0.7825758
vn 0.2273007 -0.06273133 0.9718021
vn -0.25779 -0.06292313 0.9641498
vn -0.2577927 -0.06292196 0.9641492
vn -0.5464461 -0.05499905 0.8356864
vn -0.5464476 -0.05499706 0.8356856
vn -0.7007427 -0.04718542 0.711852
vn -0.7007391 -0.04718886 0.7118553
vn 0.3561716 0.934379 0.008803949
vn -0.001420697 0.9979006 0.06474789
vn 0.7141692 0.6975107 -0.05866186
vn -0.001420486 0.9979007 0.06474762
vn -0.001420705 0.9979007 0.06474748
vn -0.001421027 0.9979006 0.06474812
vn -0.001418567 0.9979006 0.06474853
vn -0.001416667 0.9979005 0.06474908
vn -0.001419292 0.9979006 0.06474785
vn -0.00142119 0.9979007 0.06474666
vn -0.001420623 0.9979007 0.06474741
vn -0.001421695 0.9979007 0.0647462
vn -0.001420291 0.9979007 0.06474771
vn -0.001420851 0.9979007 0.06474733
vn -0.001420208 0.9979007 0.06474779
vn -0.001420439 0.9979007 0.06474744
vn -0.001420669 0.9979007 0.06474708
vn 0.001421144 -0.9979007 -0.0647475
vn 0.001420834 -0.9979007 -0.06474772
vn 0.001422082 -0.9979006 -0.06474786
vn 0.001421253 -0.9979007 -0.06474683
vn 0.001420805 -0.9979007 -0.06474736
vn 0.001420535 -0.9979007 -0.06474652
vn 0.5488455 -0.8253178 -0.1327371
vn 0.5489831 -0.8251926 -0.1329467
vn 0.001065028 -0.997941 -0.06412942
vn 0.001420089 -0.9979007 -0.06474744
vn 0.001136805 -0.997933 -0.06425317
vn 0.001420286 -0.9979007 -0.06474711
vn 0.001420498 -0.9979007 -0.06474644
vn 0.001421042 -0.9979008 -0.06474577
vn 0.0009470462 -0.9979544 -0.06392315
vn 0.001421153 -0.9979006 -0.0647481
vn 0.001420312 -0.9979006 -0.06474781
vn 0.001422323 -0.9979005 -0.06474929
vn 0.001136805 -0.997933 -0.06425317
vn 0.0009470462 -0.9979544 -0.06392315
vn 0.001065028 -0.997941 -0.06412942
vn 0.001419937 -0.9979006 -0.06474832
vn 0.001419937 -0.9979006 -0.06474832
vn 0.001419937 -0.9979006 -0.06474832
vn -0.001421695 0.9979007 0.0647462
vn -0.001419292 0.9979006 0.06474785
vn -0.00142119 0.9979007 0.06474666
g gun_m629_4_0
f 3/3/3 2/2/2 1/1/1
f 2/2/2 4/4/4 1/1/1
f 7/7/7 6/6/6 5/5/5
f 6/6/6 8/8/8 5/5/5
f 9/9/9 8/8/8 6/6/6
f 10/10/10 9/9/9 6/6/6
f 11/11/11 9/9/9 10/10/10
f 12/12/12 11/11/11 10/10/10
f 11/11/11 12/12/12 13/13/13
f 12/12/12 14/14/14 13/13/13
f 13/13/13 14/14/14 15/15/15
f 14/14/14 16/16/16 15/15/15
f 17/17/17 15/15/15 16/16/16
f 17/17/17 18/18/18 15/15/15
f 18/18/18 19/19/19 15/15/15
f 22/22/22 21/21/21 20/20/20
f 21/21/21 23/23/23 20/20/20
f 23/23/23 21/21/21 24/24/24
f 21/21/21 25/25/25 24/24/24
f 28/28/28 27/27/27 26/26/26
f 27/27/27 29/29/29 26/26/26
f 30/30/30 27/27/27 28/28/28
f 28/28/28 26/26/26 31/31/31
f 26/26/26 32/32/32 31/31/31
f 31/31/31 32/32/32 33/33/33
f 32/32/32 34/34/34 33/33/33
f 35/35/35 33/33/33 34/34/34
f 35/35/35 34/34/34 36/36/36
f 34/34/34 37/37/37 36/36/36
f 38/38/38 36/36/36 37/37/37
f 39/39/39 38/38/38 37/37/37
f 38/38/38 39/39/39 40/40/40
f 39/39/39 41/41/41 40/40/40
f 41/41/41 42/42/42 40/40/40
f 42/42/42 43/43/43 40/40/40
f 43/43/43 42/42/42 44/44/44
f 42/42/42 45/45/45 44/44/44
f 48/48/48 47/47/47 46/46/46
f 47/47/47 49/49/49 46/46/46
f 49/49/49 47/47/47 50/50/50
f 51/51/51 49/49/49 50/50/50
f 52/52/52 51/51/51 50/50/50
f 53/53/53 52/52/52 50/50/50
f 53/53/53 54/54/54 52/52/52
f 54/54/54 55/55/55 52/52/52
f 57/57/57 54/54/54 56/56/56
f 54/54/54 58/58/58 56/56/56
f 59/59/59 55/55/55 57/57/57
f 61/61/61 58/58/58 60/60/60
f 62/62/62 58/58/58 61/61/61
f 65/65/65 64/64/64 63/63/63
f 64/64/64 66/66/66 63/63/63
f 65/65/65 63/63/63 67/67/67
f 63/63/63 68/68/68 67/67/67
f 66/66/66 64/64/64 69/69/69
f 70/70/70 66/66/66 69/69/69
f 68/68/68 71/71/71 67/67/67
f 71/71/71 72/72/72 67/67/67
f 72/72/72 71/71/71 73/73/73
f 72/72/72 73/73/73 74/74/74
f 75/75/75 72/72/72 74/74/74
f 75/75/75 76/76/76 72/72/72
f 78/78/78 73/73/73 77/77/77
f 79/79/79 78/78/78 77/77/77
f 80/80/80 73/73/73 78/78/78
f 83/83/83 82/82/82 81/81/81
f 86/86/86 85/85/85 84/84/84
f 89/89/89 88/88/88 87/87/87
